<?xml version="1.0" standalone="no"?><!DOCTYPE svg PUBLIC "-//W3C//DTD SVG 1.1//EN" "http://www.w3.org/Graphics/SVG/1.1/DTD/svg11.dtd"><svg style="fill-rule:nonzero;clip-rule:evenodd;stroke-linejoin:round;stroke-miterlimit:1.41421;" xmlns="http://www.w3.org/2000/svg" name="wide-thin" title="None" xml:space="preserve" viewBox="0.000 0.000 4000.000 380.000" width="100%" xmlns:xlink="http://www.w3.org/1999/xlink" id="wide-thin" enable-background="0.000 0.000 4000.000 380.000"><path d="M422 365C537 365 564 265 696 265L696 109C564 109 533 9 425 9C244 9 204 162 0 173L0 183L358 183C361 169 373 159 386 159C402 159 415 172 415 188C415 204 402 217 386 217C372 217 361 206 358 192L0 192L0 202C204 214 240 365 422 365ZM732 107L732 267C926 286 1089 380 1503 380C1906 380 2488 300 3853 300C3953 300 4000 255 4000 182C4000 126 3952 80 3857 80C2489 80 1907 0 1503 0C1106 0 928 93 732 107Z"/></svg>