<?xml version="1.0" standalone="no"?><!DOCTYPE svg PUBLIC "-//W3C//DTD SVG 1.1//EN" "http://www.w3.org/Graphics/SVG/1.1/DTD/svg11.dtd"><svg style="fill-rule:nonzero;clip-rule:evenodd;stroke-linejoin:round;stroke-miterlimit:1.41421;" xmlns="http://www.w3.org/2000/svg" name="narrow-thin" title="None" xml:space="preserve" viewBox="0.000 0.000 2000.000 380.000" width="100%" xmlns:xlink="http://www.w3.org/1999/xlink" id="narrow-thin" enable-background="0.000 0.000 2000.000 380.000"><path d="M272 365C361 365 384 265 487 265L487 109C384 109 360 9 275 9C158 9 132 116 0 123L0 133L238 183C241 169 253 159 266 159C282 159 295 172 295 188C295 204 282 217 266 217C252 217 241 206 238 192L0 242L0 252C132 260 155 365 272 365ZM512 107L512 267C639 310 721 380 963 380C1224 380 1280 300 1843 300C1950 300 2000 255 2000 182C2000 126 1950 80 1847 80C1282 80 1227 0 963 0C731 0 638 65 512 107Z"/></svg>