<?xml version="1.0" standalone="no"?><!DOCTYPE svg PUBLIC "-//W3C//DTD SVG 1.1//EN" "http://www.w3.org/Graphics/SVG/1.1/DTD/svg11.dtd"><svg style="fill-rule:nonzero;clip-rule:evenodd;stroke-linejoin:round;stroke-miterlimit:1.41421;" xmlns="http://www.w3.org/2000/svg" name="narrow-bold" title="None" xml:space="preserve" viewBox="0.000 0.000 500.000 1000.000" width="100%" xmlns:xlink="http://www.w3.org/1999/xlink" id="narrow-bold" enable-background="0.000 0.000 500.000 1000.000"><path d="M166 482C166 761 188 921 263 921C315 921 343 835.1284 343 713C343 617.0789 331 551 273 551C242 551 224 560 206 577C195.0581 540.1955 241 478 331 478C419 478 500 549.3663 500 690C500 901.1875 400.9922 1000 252 1000C107.2562 1000 0 863 0 513C0 216 118 0 265 0C354.8921 0 371 60 412 59C431 59 457.7848 40.615 472 0C535 81 475.0953 172.0444 402 138C441 193 399.6356 281.3385 296 273C354 168 326 78 273 78C213 78 166 150 166 482Z"/></svg>