<?xml version="1.0" standalone="no"?><!DOCTYPE svg PUBLIC "-//W3C//DTD SVG 1.1//EN" "http://www.w3.org/Graphics/SVG/1.1/DTD/svg11.dtd"><svg style="fill-rule:nonzero;clip-rule:evenodd;stroke-linejoin:round;stroke-miterlimit:1.41421;" xmlns="http://www.w3.org/2000/svg" name="narrow-thin" title="None" xml:space="preserve" viewBox="0.000 0.000 500.000 1000.000" width="100%" xmlns:xlink="http://www.w3.org/1999/xlink" id="narrow-thin" enable-background="0.000 0.000 500.000 1000.000"><path d="M52 497C52 842 129.4259 978 278 978C395.0726 978 447 891 447 728C447 594.6995 399 523 290 523C216 523 158.5144 556.0079 130 611C116 582 178 500 301 500C405 500 500 573 500 719C500 900 408.9916 1000 272 1000C115.2366 1000 0 863 0 513C0 216 128 0 275 0C369.7925 0 379 60 432 60C455 60 482 40 492 0C516 54 472 125 403 80C441 137 416 225 355 225C429.5723 89.7756 349.1481 20 276 20C144 20 52 229 52 497Z"/></svg>