<?xml version="1.0" standalone="no"?><!DOCTYPE svg PUBLIC "-//W3C//DTD SVG 1.1//EN" "http://www.w3.org/Graphics/SVG/1.1/DTD/svg11.dtd"><svg style="fill-rule:nonzero;clip-rule:evenodd;stroke-linejoin:round;stroke-miterlimit:1.41421;" xmlns="http://www.w3.org/2000/svg" name="wide-bold" title="None" xml:space="preserve" viewBox="0.000 0.000 1000.000 1000.000" width="100%" xmlns:xlink="http://www.w3.org/1999/xlink" id="wide-bold" enable-background="0.000 0.000 1000.000 1000.000"><path d="M313 497C313 766 401 921 534 921C648 921 706 831 706 703C706 598 670 525 562 525C487 525 439 558 399 592C376 532 478 438 683 438C847 438 1000 496 1000 680C1000 898 810 1000 523 1000C216 1000 0 818 0 513C0 216 246 0 566 0C712 0 776 57 858 56C899 56 950 51 988 0C1023 122 951 197 864 180C916 249 860 379 718 367C809 154 708 78 574 78C448 78 313 153 313 497Z"/></svg>