<?xml version="1.0" standalone="no"?><!DOCTYPE svg PUBLIC "-//W3C//DTD SVG 1.1//EN" "http://www.w3.org/Graphics/SVG/1.1/DTD/svg11.dtd"><svg style="fill-rule:nonzero;clip-rule:evenodd;stroke-linejoin:round;stroke-miterlimit:1.41421;" xmlns="http://www.w3.org/2000/svg" name="wide-thin" title="None" xml:space="preserve" viewBox="0.000 0.000 1000.000 1000.000" width="100%" xmlns:xlink="http://www.w3.org/1999/xlink" id="wide-thin" enable-background="0.000 0.000 1000.000 1000.000"><path d="M76 497C76 774.2453 246 971 539 971C794 971 922 878.0444 922 704C922 570 818 484 558 484C386 484 259 566 219 612C191 565 356 450 573 450C846 450 1000 532 1000 700C1000 901 818 1000 531 1000C224 1000 0 818 0 513C0 216 216 0 526 0C726 0 753 56 866 56C907 56 958 51 996 0C1007 134 873 113 774 79C861 118 902 264 767 320C859 124 712 31 530 31C261 31 76 237 76 497Z"/></svg>