<?xml version="1.0" standalone="no"?><!DOCTYPE svg PUBLIC "-//W3C//DTD SVG 1.1//EN" "http://www.w3.org/Graphics/SVG/1.1/DTD/svg11.dtd"><svg style="fill-rule:nonzero;clip-rule:evenodd;stroke-linejoin:round;stroke-miterlimit:1.41421;" xmlns="http://www.w3.org/2000/svg" name="narrow-thin" title="None" xml:space="preserve" viewBox="0.000 0.000 2000.000 380.000" width="100%" xmlns:xlink="http://www.w3.org/1999/xlink" id="narrow-thin" enable-background="0.000 0.000 2000.000 380.000"><path d="M1488 107C1369 56 1269 0 1037 0C719 0 417 37 173 80C59 100 0 126 0 182C0 255 58 277 177 300C423 347 722 380 1037 380C1279 380 1364 331 1488 267ZM1711 363C1852 363 1934 265 2000 127L1996 122C1819 180 1821 19 1671 19C1595 19 1561 69 1519 107L1519 263C1563 307 1619 363 1711 363Z"/></svg>