<?xml version="1.0" standalone="no"?><!DOCTYPE svg PUBLIC "-//W3C//DTD SVG 1.1//EN" "http://www.w3.org/Graphics/SVG/1.1/DTD/svg11.dtd"><svg style="fill-rule:nonzero;clip-rule:evenodd;stroke-linejoin:round;stroke-miterlimit:1.41421;" xmlns="http://www.w3.org/2000/svg" name="narrow-bold" title="None" xml:space="preserve" viewBox="0.000 0.000 2000.000 380.000" width="100%" xmlns:xlink="http://www.w3.org/1999/xlink" id="narrow-bold" enable-background="0.000 0.000 2000.000 380.000"><path d="M1488 107C1369 56 1269 0 1037 0C719 0 417 37 173 80C59 100 0 126 0 182C0 255 58 277 177 300C423 347 722 380 1037 380C1279 380 1364 331 1488 267ZM1671 355C1821 355 1819 194 1996 252L2000 247C1934 109 1852 11 1711 11C1619 11 1563 67 1519 111L1519 267C1561 305 1595 355 1671 355Z"/></svg>