<?xml version="1.0" standalone="no"?><!DOCTYPE svg PUBLIC "-//W3C//DTD SVG 1.1//EN" "http://www.w3.org/Graphics/SVG/1.1/DTD/svg11.dtd"><svg style="fill-rule:nonzero;clip-rule:evenodd;stroke-linejoin:round;stroke-miterlimit:1.41421;" xmlns="http://www.w3.org/2000/svg" name="wide-bold" title="None" xml:space="preserve" viewBox="0.000 0.000 4000.000 380.000" width="100%" xmlns:xlink="http://www.w3.org/1999/xlink" id="wide-bold" enable-background="0.000 0.000 4000.000 380.000"><path d="M3268 107C3086 59 2894 0 2497 0C1645 0 770 41 173 80C58 88 0 126 0 182C0 255 56 291 177 300C764 343 1646 380 2497 380C2911 380 3078 319 3268 267ZM3511 355C3718 355 3754 172 3996 252L4000 247C3925 147 3790 11 3591 11C3454 11 3355 59 3304 111L3304 267C3352 311 3408 355 3511 355Z"/></svg>