<?xml version="1.0" standalone="no"?><!DOCTYPE svg PUBLIC "-//W3C//DTD SVG 1.1//EN" "http://www.w3.org/Graphics/SVG/1.1/DTD/svg11.dtd"><svg style="fill-rule:nonzero;clip-rule:evenodd;stroke-linejoin:round;stroke-miterlimit:1.41421;" xmlns="http://www.w3.org/2000/svg" name="wide-thin" title="None" xml:space="preserve" viewBox="0.000 0.000 4000.000 380.000" width="100%" xmlns:xlink="http://www.w3.org/1999/xlink" id="wide-thin" enable-background="0.000 0.000 4000.000 380.000"><path d="M3268 107C3086 59 2894 0 2497 0C1645 0 770 41 173 80C58 88 0 126 0 182C0 255 56 291 177 300C764 343 1646 380 2497 380C2911 380 3078 319 3268 267ZM3591 365C3790 365 3924.7476 228.6299 4000 129L3996 124C3753.6211 203.8077 3718 21 3511 21C3408 21 3352 65 3304 109L3304 265C3355 317 3454 365 3591 365Z"/></svg>