<?xml version="1.0" standalone="no"?><!DOCTYPE svg PUBLIC "-//W3C//DTD SVG 1.1//EN" "http://www.w3.org/Graphics/SVG/1.1/DTD/svg11.dtd"><svg style="fill-rule:nonzero;clip-rule:evenodd;stroke-linejoin:round;stroke-miterlimit:1.41421;" xmlns="http://www.w3.org/2000/svg" name="narrow-thin" title="None" xml:space="preserve" viewBox="0.000 0.000 2000.000 1086.000" width="100%" xmlns:xlink="http://www.w3.org/1999/xlink" id="narrow-thin" enable-background="0.000 0.000 2000.000 1086.000"><path d="M947 118L909 119C880 120 857 99 854 62C851 23 866 15 972 15C1163 15 1222 163 1222 300C1222 493 1123 661 1057 661C1039 661 1024 649 1011 626C996 597 1014 578 1044 550C1102 496 1129 409 1129 319C1129 173 1080 112 1019 112C974 112 972 116 947 118ZM1305 119L1267 120C1245 121 1222 111 1225 70C1228 23 1236 15 1330 15C1528 15 1590 163 1590 300C1590 493 1485 661 1415 661C1397 661 1381 651 1368 627C1353 598 1371 578 1401 551C1459 498 1490 409 1490 319C1490 174 1440 113 1377 113C1332 113 1330 117 1305 119ZM187 17C225 19 230 43 230 65C230 97 216 182 202 268C187 363 151 620 134 777C125 860 121 966 118 1004C114 1061 101 1078 63 1075C10 1071 10 1050 11 1002C12 949 25 840 43 712C67 532 97 310 113 149C125 31 132 14 187 17ZM336 81C342 20 358 12 397 15C441 18 448 34 448 64C448 102 438 171 424 266C415 328 378 626 364 834C359 914 356 994 353 1027C350 1057 328 1067 290 1061C260 1056 247 1038 247 1018C247 962 262 855 276 717C298 502 323 216 336 81ZM706 73C678 225 625 477 584 693C569 772 540 914 525 1023C518 1074 501 1089 456 1080C415 1072 409 1046 416 1012C452 848 496 646 519 534C560 330 599 151 627 40C637 0 664 0 682 5C701 11 713 20 723 31ZM697 28L736 27C772 26 781 41 782 85C783 369 767 770 790 998C796 1056 776 1065 744 1065C698 1065 684 1054 682 987C678 865 688 296 692 76ZM924 36L1014 70C999 287 955 662 947 1025C946 1066 934 1079 898 1075C859 1071 843 1053 843 1034C843 985 847 900 866 684ZM1282 36L1372 70C1357 288 1313 665 1305 1029C1304 1070 1292 1083 1256 1079C1217 1075 1201 1057 1201 1038C1201 988 1204 903 1224 684ZM33 585C23 549 28 528 54 530L334 547L326 609L91 609C62 611 40 611 33 585ZM456 704C447 660 459 653 494 655L746 669L739 736L501 742C479 743 462 734 456 704ZM1807 1004C1806 1063 1793 1075 1756 1072C1709 1068 1696 1054 1696 1015C1696 961 1706 760 1718 613C1660 421 1622 249 1604 137C1592 59 1583 27 1629 11C1691 -10 1703 7 1716 105C1724 169 1746 333 1777 497C1819 350 1847 194 1881 57C1894 4 1919 1 1965 24C1993 38 1999 63 1989 97C1936 279 1855 536 1819 653C1813 766 1808 928 1807 1004Z"/></svg>