<?xml version="1.0" standalone="no"?><!DOCTYPE svg PUBLIC "-//W3C//DTD SVG 1.1//EN" "http://www.w3.org/Graphics/SVG/1.1/DTD/svg11.dtd"><svg style="fill-rule:nonzero;clip-rule:evenodd;stroke-linejoin:round;stroke-miterlimit:1.41421;" xmlns="http://www.w3.org/2000/svg" name="wide-thin" title="None" xml:space="preserve" viewBox="0.000 0.000 4000.000 1086.000" width="100%" xmlns:xlink="http://www.w3.org/1999/xlink" id="wide-thin" enable-background="0.000 0.000 4000.000 1086.000"><path d="M2078 160L1928 171C1887 174 1845 129 1845 63C1845 22 1883 15 2075 15C2426 15 2520 172 2520 303C2520 562 2243 745 2085 745C2058 745 2041 730 2039 678C2037 635 2035 602 2106 584C2326 528 2397 411 2397 313C2397 204 2312 153 2202 153C2127 153 2122 157 2078 160ZM2771 152L2653 170C2592 179 2589 130 2591 96C2593 20 2612 14 2810 14C3112 14 3225 144 3225 293C3225 557 2928 740 2807 740C2778 740 2757 722 2745 685C2726 630 2740 596 2791 581C2913 546 3095 474 3095 301C3095 179 3006 149 2895 149C2830 149 2803 149 2771 152ZM524 15C585 36 595 61 595 92C595 128 540 205 494 288C440 384 311 641 246 797C211 876 172 978 154 1014C132 1056 101 1062 57 1039C4 1011 0 990 5 958C12 914 60 820 115 712C204 532 356 215 383 149C435 29 450 -10 524 15ZM862 99C893 30 921 7 981 25C1034 41 1043 55 1043 86C1043 118 1001 182 959 266C928 328 779 626 699 834C668 912 656 995 633 1027C616 1050 584 1051 538 1032C510 1020 495 1008 495 968C495 924 536 832 583 717C669 509 804 230 862 99ZM1596 160C1465 308 1291 505 1166 693C1114 766 1028 898 975 1000C954 1040 904 1029 855 995C822 972 814 938 849 885C952 730 1078 565 1152 473C1251 350 1395 171 1494 60C1525 25 1557 18 1587 29C1621 43 1641 67 1665 91ZM1625 74L1688 77C1726 79 1758 102 1731 182C1642 436 1547 758 1520 998C1514 1056 1484 1079 1422 1065C1364 1052 1340 1046 1345 987C1351 908 1520 349 1596 145ZM2101 83L2239 117C2114 378 1975 677 1841 1020C1821 1071 1789 1092 1708 1058C1669 1042 1664 1019 1664 992C1664 950 1716 874 1808 684ZM2808 80L2945 114C2833 342 2636 754 2552 953C2501 1073 2472 1099 2386 1064C2350 1049 2340 1033 2340 1006C2340 954 2397 881 2498 684ZM31 585C25 549 41 528 95 530L728 555L678 649L111 663C56 664 41 643 31 585ZM845 707C838 663 853 646 903 648L1455 669L1414 766L912 786C865 788 854 761 845 707ZM3413 983C3387 1068 3358 1083 3281 1048C3246 1031 3229 1020 3229 985C3229 938 3318 758 3384 620C3350 441 3298 260 3266 153C3247 87 3233 54 3306 23C3389 -12 3414 -5 3439 115C3450 167 3483 362 3504 527C3629 382 3750 194 3840 45C3864 6 3893 -12 3950 26C3986 50 3997 89 3975 126C3868 306 3635 555 3527 667C3488 768 3438 902 3413 983Z"/></svg>