<?xml version="1.0" standalone="no"?><!DOCTYPE svg PUBLIC "-//W3C//DTD SVG 1.1//EN" "http://www.w3.org/Graphics/SVG/1.1/DTD/svg11.dtd"><svg style="fill-rule:nonzero;clip-rule:evenodd;stroke-linejoin:round;stroke-miterlimit:1.41421;" xmlns="http://www.w3.org/2000/svg" name="narrow-bold" title="None" xml:space="preserve" viewBox="0.000 0.000 2000.000 1086.000" width="100%" xmlns:xlink="http://www.w3.org/1999/xlink" id="narrow-bold" enable-background="0.000 0.000 2000.000 1086.000"><path d="M947 180L889 181C860 182 840 148 834 86C829 28 848 15 972 15C1171 15 1232 163 1232 300C1232 514 1127 701 1057 701C1027 701 1004 688 981 646C963 611 980 582 1014 550C1072 496 1099 409 1099 319C1099 217 1063 174 1019 174C974 174 972 178 947 180ZM1302 179L1254 180C1232 180 1211 151 1212 70C1213 23 1224 15 1327 15C1545 15 1613 163 1613 300C1613 514 1492 701 1412 701C1385 701 1365 689 1342 646C1324 611 1343 582 1378 551C1435 499 1463 409 1463 319C1463 216 1424 173 1374 173C1329 173 1327 177 1302 179ZM195 5C262 9 272 37 272 65C272 97 258 182 244 268C229 362 198 618 181 774C172 858 163 965 160 1004C156 1064 129 1088 64 1079C12 1072 3 1052 4 1001C5 948 20 840 38 712C64 519 87 280 104 107C113 15 128 1 195 5ZM313 81C320 12 344 3 399 6C465 11 476 28 476 64C476 102 466 171 452 266C443 328 406 626 392 834C387 914 384 994 381 1027C377 1072 347 1084 294 1078C231 1071 224 1046 224 1018C224 962 239 855 253 717C275 502 300 216 313 81ZM713 73C681 226 632 478 593 693C579 772 549 914 534 1023C527 1073 500 1091 439 1079C376 1067 370 1047 377 1012C413 848 456 647 479 534C520 329 554 162 588 40C600 -3 652 -3 682 5C701 11 713 20 723 31ZM697 28L736 27C796 25 812 41 813 85C814 369 798 770 821 998C828 1066 798 1075 745 1075C689 1075 671 1063 669 987C665 865 675 296 679 76ZM894 36L1035 70C1020 287 976 662 968 1025C967 1069 942 1087 873 1079C830 1075 813 1062 813 1034C813 985 817 900 836 684ZM1249 36L1397 70C1382 288 1338 665 1330 1029C1329 1072 1305 1088 1238 1081C1188 1076 1168 1062 1168 1016C1168 969 1173 890 1191 684ZM10 585C-3 537 5 509 31 510L334 527L326 649L87 649C49 649 29 653 10 585ZM424 704C411 643 427 633 462 635L746 649L739 775L469 781C447 781 436 764 424 704ZM1820 1004C1819 1063 1799 1077 1743 1072C1677 1066 1658 1054 1658 1015C1658 972 1667 824 1677 701C1609 475 1575 269 1554 137C1541 56 1543 28 1609 11C1692 -10 1717 6 1726 105C1732 176 1744 311 1766 476C1793 342 1811 203 1835 80C1850 5 1896 4 1946 23C1997 43 2008 79 1989 157C1941 349 1895 525 1831 729C1825 823 1821 944 1820 1004Z"/></svg>