<?xml version="1.0" standalone="no"?><!DOCTYPE svg PUBLIC "-//W3C//DTD SVG 1.1//EN" "http://www.w3.org/Graphics/SVG/1.1/DTD/svg11.dtd"><svg style="fill-rule:nonzero;clip-rule:evenodd;stroke-linejoin:round;stroke-miterlimit:1.41421;" xmlns="http://www.w3.org/2000/svg" name="wide-bold" title="None" xml:space="preserve" viewBox="0.000 0.000 4000.000 1086.000" width="100%" xmlns:xlink="http://www.w3.org/1999/xlink" id="wide-bold" enable-background="0.000 0.000 4000.000 1086.000"><path d="M2078 280L1909 288C1861 290 1811 176 1811 90C1811 23 1834 11 2101 11C2441 11 2562 158 2562 303C2562 622 2233 845 2084 845C2019 845 1985 781 1975 717C1956 613 1971 576 2115 538C2238 504 2297 402 2297 340C2297 289 2256 271 2202 271C2127 271 2116 277 2078 280ZM2711 290L2661 293C2595 297 2578 243 2572 135C2565 14 2629 10 2852 10C3148 10 3259 140 3259 308C3259 623 2930 845 2796 845C2735 845 2695 788 2665 717C2639 659 2661 592 2774 559C2863 533 2995 474 2995 358C2995 295 2950 281 2895 281C2798 281 2758 286 2711 290ZM588 24C673 52 683 73 683 108C683 152 649 219 611 288C558 382 445 643 381 797C344 883 303 991 277 1029C249 1070 186 1074 111 1045C3 1004 -6 959 8 889C14 858 54 793 95 712C183 534 318 214 345 149C398 28 446 -23 588 24ZM804 99C841 17 921 -20 1029 20C1103 47 1112 69 1112 111C1112 170 1070 243 1019 344C992 399 849 653 779 834C748 912 738 997 713 1027C674 1076 630 1071 561 1059C473 1043 427 1026 427 968C427 924 468 832 515 717C601 508 745 230 804 99ZM1585 173C1460 314 1306 512 1186 693C1129 774 1037 914 1006 991C974 1070 889 1070 822 1016C721 937 723 896 765 825C845 687 963 551 1024 470C1123 340 1279 159 1381 44C1422 -1 1499 -9 1547 15C1584 33 1612 70 1638 96ZM1548 40L1685 44C1772 47 1817 63 1785 155C1698 406 1597 721 1570 957C1560 1051 1538 1088 1408 1070C1313 1057 1258 1030 1258 964C1258 902 1411 446 1492 215ZM1971 154L2232 188C2112 423 1996 708 1896 954C1844 1082 1804 1093 1685 1070C1588 1054 1563 1026 1563 971C1563 881 1618 831 1723 630ZM2678 154L2952 188C2830 423 2673 778 2606 957C2556 1084 2508 1100 2386 1072C2286 1050 2268 1035 2268 991C2268 933 2315 875 2411 684ZM98 531C104 492 131 485 164 486L717 508L667 692L126 706C109 706 92 577 98 531ZM923 643C924 610 944 598 975 600L1455 626L1414 820L938 840C922 841 915 729 923 643ZM3487 983C3457 1086 3410 1104 3261 1053C3197 1031 3165 1010 3165 958C3165 907 3238 768 3310 613C3280 447 3219 284 3190 185C3165 99 3194 59 3290 24C3409 -19 3486 -7 3519 115C3528 149 3543 247 3556 357C3613 261 3664 159 3709 75C3756 -13 3834 -15 3909 27C3998 77 4026 133 3967 226C3853 407 3693 589 3581 715C3545 809 3506 913 3487 983Z"/></svg>