<?xml version="1.0" standalone="no"?><!DOCTYPE svg PUBLIC "-//W3C//DTD SVG 1.1//EN" "http://www.w3.org/Graphics/SVG/1.1/DTD/svg11.dtd"><svg style="fill-rule:nonzero;clip-rule:evenodd;stroke-linejoin:round;stroke-miterlimit:1.41421;" xmlns="http://www.w3.org/2000/svg" name="narrow-thin" title="None" xml:space="preserve" viewBox="0.000 0.000 2000.000 1086.000" width="100%" xmlns:xlink="http://www.w3.org/1999/xlink" id="narrow-thin" enable-background="0.000 0.000 2000.000 1086.000"><path d="M14 903C48.1857 896.7844 41.9174 896.797 75 903C71 764 70 609 70 446C70 303 73 169 77 44C42.5535 49.2192 47.3552 49.2117 14 44C18 168 21 302 21 444C22 608 19 763 14 903ZM63 349L69 375C79 275 131 268 149 268C185 268 200 299 200 380C200 543 192 633 192 840C192 918 213 943 256 943C316 943 343 874 356 786L339 778C328 854 296 900 270 900C249 900 241 888 241 801C241 667 253 511 253 370C253 257 232 217 168 217C124 217 74 242 63 349ZM614 825C612 909 635 937 683 937C735 937 758 900 784 784L766 773C746 873 729 897 699 897C679 897 668 887 668 816C668 710 668 568 669 444C669 297 671 154 675 24C656 27 630 27 610 24C615 158 616 295 617 445C618 564 617 705 614 825ZM763 794C761 880 786 908 832 908C884 908 909 840 925 757L910 743C886 829 871 862 848 862C827 862 815 849 815 756C815 676 816 592 817 499C818 408 820 318 822 239C803 242 780 242 762 239C764 320 765 405 765 495C766 596 765 691 763 794ZM487 357C485 373 477 390 468 402C482 416 505 421 520 421C586 418 631 357 633 272L617 272C608 318 582 383 539 383ZM503 571C503 786 491 876 435 876C388 876 374 785 374 574C374 364 387 293 435 293C476 293 503 364 503 571ZM438 250C363 250 322 341 322 585C322 803 350 915 430 915C523 915 554 799 554 566C554 339 513 250 438 250ZM1055 835C1053 912 1081 937 1124 937C1172 937 1195 903 1219 794L1201 785C1179 870 1158 897 1135 897C1115 897 1105 885 1105 796C1105 699 1105 558 1106 444C1106 297 1108 154 1112 24C1090 27 1071 27 1049 24C1053 121 1055 218 1057 322L1051 340C1051 361 1052 383 1052 405C1053 521 1052 654 1050 774L1055 774ZM1053 631C1051 772 1035 846 1002 846C957.9184 846 948 778 948 574C948 347 960.0377 291 1006 291C1035 291 1050 314 1053 461L1065 415C1059 259 1037 240 998 240C929.7172 240 894 321 894 585C894 791 909.8523 895 987 895C1046 895 1052 828 1056 792ZM1352 804C1350 889 1381 917 1426 917C1475 917 1494 878 1521 760L1505 753C1480.4364 843.0667 1461 875 1436 875C1414 875 1401 861.6321 1401 766C1401 677 1401 575 1402 472C1402 324 1404 363 1408 233C1387 236 1372 236 1351 233L1353 349L1348 367C1348 385 1349 403 1349 423C1350 533 1349 639 1347 754ZM1350 635C1348 773 1329 846 1293 846C1254 846 1242 769 1242 584C1242 399 1265 324 1301 324C1329 324 1347 345 1350 478L1366 453C1359 288 1340 267 1292 267C1232 267 1191 343 1191 595C1191 814 1211 895 1281 895C1342 895 1348 828 1352 792ZM1714 224C1692 228 1669 228 1649 224C1653 350 1650 508 1650 657C1650 681 1650 705 1651 731L1655 740C1655 783 1656 835 1656 906C1656 1006.963 1647 1051 1592 1051C1530 1051 1523.1765 989.5751 1533 935C1515 938 1497 938 1479 933C1458 1045 1514 1082 1588 1082C1701 1082 1711 993 1711 913C1711 790 1706 725 1706 659C1705 509 1708 351 1714 224ZM1660 744L1650 656C1650 778.8235 1618.4638 830 1586 830C1547.641 830 1542 777 1542 727C1542 631.1611 1550.0088 451.5894 1549 270C1530 273 1509 273 1488 270C1494 465 1484 607 1484 740C1484 853 1520.125 886 1569 886C1606.9167 886 1648.0067 857.9366 1660 744ZM795 189C824 189 839 147 839 96C839 44 824 2 795 2C769 2 754 44 754 96C754 147 769 189 795 189ZM1825 188C1823 231 1822 284 1822 332C1822 355 1828 377 1830 398L1839 392C1861.0973 610.8682 1934 675 1934 791C1934 836 1923 883 1874 883C1833 883 1818 849.5517 1818 786C1818 755 1822 738 1830 711C1814.4231 712.9471 1793.5873 713.7507 1778 711C1769 741 1764 768 1764 791C1764 879 1805.2075 916 1868 916C1938 916 1990 879 1990 770C1990 625 1885 550.2643 1885 306C1885 270 1884 224 1889 188C1871 190 1844 191 1825 188ZM1855 306L1823 285C1814.9091 449.852 1769 635 1672 729L1681 776C1801 640 1839 497 1855 306Z"/></svg>