<?xml version="1.0" standalone="no"?><!DOCTYPE svg PUBLIC "-//W3C//DTD SVG 1.1//EN" "http://www.w3.org/Graphics/SVG/1.1/DTD/svg11.dtd"><svg style="fill-rule:nonzero;clip-rule:evenodd;stroke-linejoin:round;stroke-miterlimit:1.41421;" xmlns="http://www.w3.org/2000/svg" name="narrow-bold" title="None" xml:space="preserve" viewBox="0.000 0.000 2000.000 1086.000" width="100%" xmlns:xlink="http://www.w3.org/1999/xlink" id="narrow-bold" enable-background="0.000 0.000 2000.000 1086.000"><path d="M13 903C46 897 78 897 110 903C106 764 105 609 105 446C105 303 108 169 112 44C79 49 45 49 13 44C17 168 20 302 20 444C21 608 18 763 13 903ZM98 359L104 425C111 353 126 348 144 348C169 348 172 380 173 410C176 558 167 641 167 830C167 915 200 943 251 943C309 943 335 876 348 790L324 778C308 837 291 857 271 857C256 857 248 849 248 791C248 660 258 508 258 370C258 257 226 217 181 217C147 217 111 245 98 359ZM602 825C600 909 634 937 678 937C731 937 755 900 781 784L761 773C745 832 728 852 709 852C694 852 686 844 686 786C686 689 686 558 687 444C687 297 689 154 693 24C661 29 628 29 596 24C601 158 604 295 605 445C606 564 605 705 602 825ZM746 794C744 880 773 908 827 908C884 908 905 851 929 757L905 743C889 801 872 822 853 822C838 822 830 814 830 756C830 676 831 592 832 499C833 408 835 318 837 239C806 244 775 244 745 239C747 320 748 405 748 495C749 596 748 691 746 794ZM468 378C461 403 449 426 432 447C448 463 480 474 501 474C570 471 617 413 619 332L603 302C590 341 562 386 538 396ZM475 571C475 749 468 824 435 824C402 824 392 749 392 574C392 413 400 358 430 358C457 358 475 413 475 571ZM433 250C351 250 307 341 307 585C307 803 328 915 425 915C525 915 559 799 559 566C559 339 515 250 433 250ZM1050 835C1048 919 1076 947 1119 947C1172 947 1197 910 1223 794L1196 783C1179 841 1166 862 1150 862C1135 862 1127 854 1127 796C1127 699 1127 558 1128 444C1128 297 1130 154 1134 24C1102 29 1076 29 1044 24C1048 121 1050 218 1052 322L1046 340C1046 374 1047 409 1047 445C1048 548 1047 667 1045 774L1050 774ZM1048 595C1046 731 1031 803 1001 803C976 803 968 746 968 574C968 393 979 348 1008 348C1030 348 1045 369 1048 501L1064 425C1057 260 1040 240 993 240C927 240 883 341 883 585C883 791 904 895 982 895C1041 895 1047 828 1051 792ZM1347 804C1345 889 1374 917 1417 917C1470 917 1494 880 1520 764L1500 753C1484 812 1467 832 1448 832C1433 832 1425 824 1425 766C1425 677 1425 575 1426 472C1426 324 1428 363 1432 233C1400 238 1379 238 1346 233L1348 349L1343 367C1343 401 1344 436 1344 473C1345 566 1344 656 1342 754ZM1345 595C1343 731 1329 803 1301 803C1271 803 1262 739 1262 584C1262 435 1279 375 1306 375C1328 375 1342 396 1345 528L1361 453C1354 288 1335 267 1287 267C1221 267 1176 363 1176 595C1176 794 1198 895 1276 895C1337 895 1343 828 1347 792ZM1729 224C1695 230 1665 230 1634 224C1638 350 1635 508 1635 657C1635 681 1635 705 1636 731L1640 740C1640 786 1641 841 1641 916C1641 955 1644 1022 1589 1022C1545 1022 1540 976 1547 935C1520 937 1492 937 1464 933C1443 1045 1502 1082 1583 1082C1714 1082 1726 993 1726 913C1726 790 1721 725 1721 659C1720 509 1723 351 1729 224ZM1645 744L1635 656C1635 740 1616 775 1596 775C1571 775 1567 743 1567 713C1567 620 1575 446 1574 270C1545 274 1514 274 1483 270C1489 465 1479 607 1479 740C1479 853 1513 886 1559 886C1595 886 1633 858 1645 744ZM800 189C839 189 859 147 859 96C859 44 839 2 800 2C763 2 741 44 741 96C741 147 763 189 800 189ZM1810 178C1808 224 1807 281 1807 332C1807 355 1813 377 1815 398L1824 412C1840 578 1908 667 1908 771C1908 809 1901 848 1871 848C1847 848 1839 824 1839 778C1839 751 1844 736 1851 711C1825 715 1794 715 1768 711C1759 741 1754 768 1754 791C1754 879 1797 916 1863 916C1939 916 1995 876 1995 760C1995 621 1897 487 1897 346C1897 295 1894 229 1901 178C1875 182 1838 182 1810 178ZM1858 306L1808 285C1801 437 1754 613 1687 694L1712 766C1804 640 1842 493 1858 306Z"/></svg>