<?xml version="1.0" standalone="no"?><!DOCTYPE svg PUBLIC "-//W3C//DTD SVG 1.1//EN" "http://www.w3.org/Graphics/SVG/1.1/DTD/svg11.dtd"><svg style="fill-rule:nonzero;clip-rule:evenodd;stroke-linejoin:round;stroke-miterlimit:1.41421;" xmlns="http://www.w3.org/2000/svg" name="wide-bold" title="None" xml:space="preserve" viewBox="0.000 0.000 4000.000 1086.000" width="100%" xmlns:xlink="http://www.w3.org/1999/xlink" id="wide-bold" enable-background="0.000 0.000 4000.000 1086.000"><path d="M21 903C95.3645 895.8692 168.382 896.2858 240 903C232 764 230 609 230 446C230 303 236 169 244 44C170.0908 49.5992 92.4235 49.1017 21 44C29 168 35 302 35 444C37 608 31 763 21 903ZM226 349L229 497C239 407 264 397 293 397C327 397 331 424 333 450C338.3858 572.976 321 642.0513 321 800C321 923 388.2472 963 492 963C610.3918 963 661.069 886.7691 690 790L638 738C620 798 589 832 559 832C534 832 519 820 519 731C519 618.3606 539 488.179 539 370C539 257 476.7551 217 389 217C322.104 217 250.1954 242.9127 226 349ZM1182 765C1182 908 1253.3218 957 1352 957C1448.7379 957 1495 913 1540 791L1495 750C1476.151 803.5709 1456.1343 828 1433 828C1401 828 1385 815.6364 1385 726C1385 646.1691 1385.3507 538.0074 1387 444C1387 297 1392.9946 154.0885 1401 24C1328.1441 28.9227 1249.7832 29.9013 1177 24C1186.9906 157.8738 1188.0001 295.0073 1190 445C1191.6845 545.2278 1182 650.4194 1182 765ZM1475 714C1475 873 1528 926 1634 926C1746 926 1802 871 1835 757L1787 710C1764 779 1747 796 1724 796C1689 796 1680 781.4545 1680 676C1680 620.9027 1682.6222 563.067 1684 499C1686 408 1690 318 1694 239C1620.4243 245.3979 1545.4266 244.9522 1474 239C1477.9985 319.9699 1479 405 1479 495C1480 569 1475 639 1475 714ZM916 378C914 427 899 475 873 521C916 544 965.2419 545 1006 545C1142 542 1231 443 1238 308L1206 262C1186 330 1138.5807 409.0893 1086 401ZM930 571C930 734.9289 920 804 870 804C821.3182 804 807 735 807 574C807 428 819 378 865 378C904 378 930 427.8357 930 571ZM871 250C714.1161 250 599 341 599 585C599 803 664 915 850 915C1048 915 1130 799 1130 566C1130 339 1029.9318 250 871 250ZM2090 803C2090 923 2146 967 2238 967C2337 967 2398 923 2446 794L2392 755C2367 810 2344 839 2318 839C2289 839 2284 799.6796 2284 764C2284 675.7576 2284.1818 547.6396 2286 444C2286 290 2289.6205 140.1677 2298 4C2222.2795 9.9003 2157.7097 9.9007 2081 4C2089.9884 106.8673 2089.733 211.058 2094 322L2082 340C2082 374 2084 409 2084 445C2086 548 2084 667 2080 774L2090 774ZM2085 575C2081.5711 692.4408 2063.0781 755 2024 755C1985.9623 755 1968 709.9476 1968 574C1968 437.0487 1989 403 2029 403C2059 403 2079.7981 421.16 2085 533L2118 425C2103.0015 251.0169 2047 230 1969 230C1839 230 1752 334 1752 585C1752 804 1793.7228 915 1948 915C2050.2609 915 2082.98 841.0865 2092 802ZM2684 774C2679 890 2742 927 2834 927C2926 927 2978 882 3013 760L2964 716C2951 775 2937 805 2906 805C2883 805 2870 796.8289 2870 736C2870 656.0816 2872 564.4898 2872 472C2872 404 2873.0066 362.8927 2881 233C2807.9333 239.1747 2757.6274 238.2519 2682 233L2686 349L2676 367C2676 401 2678 436 2678 473C2680 566 2678 656 2674 754ZM2680 575C2676.1078 693.7109 2658 756 2619 756C2569 756 2554 705.7352 2554 584C2554 465.6555 2579 418 2618 418C2653 418 2675 436 2680 548L2709 453C2702.9988 307.9709 2646 267 2559 267C2431 267 2343 363 2343 595C2343 797.98 2386 901 2540 901C2649 901 2688.7372 833.1973 2695 757ZM3468 224C3389.7686 231.3016 3319.1234 230.8829 3248 224C3256 350 3250 508 3250 657C3250 684.2432 3250 711.5263 3250 741L3260 750C3260 782.8125 3262 822.3068 3262 876C3262 919.0472 3266.6061 993 3186 993C3132.4918 993 3124 955 3135 912C3069 915 3000 915 2932 909C2904 1041 2976.326 1082 3166 1082C3437 1082 3462 971.9349 3462 873C3462 769.3701 3452 714.6063 3452 659C3450 509 3456 351 3468 224ZM3268 744L3250 623C3250 707 3222 742 3192 742C3155.2708 742 3149 710 3149 680C3149 594 3165 433 3163 270C3097.671 274.0831 3025.7964 274.847 2956 270C2968 465 2948 607 2948 740C2948 853 3020.25 886 3118 886C3180.7907 886 3244.0135 856.9362 3268 744ZM1588 189C1673.9322 189 1718 157 1718 96C1718 34 1673.9322 2 1588 2C1508.5652 2 1462 34 1462 96C1462 157 1508.5652 189 1588 189ZM3600 178C3596 224 3594 281 3594 332C3594 355 3626 376 3630 398L3641 412C3659.9845 578.8642 3783 663 3783 755C3783 790 3774 816 3732 816C3703 816 3693 800 3693 767C3693 740 3699 725 3712 701C3657.2483 704.776 3590.7517 704.776 3536 701C3516.15 734.0833 3508 765.125 3508 791C3508 886.04 3584 926 3726 926C3884 926 4000 883 4000 735C4000 576.3869 3809 454.6131 3809 296C3809 260.0469 3810.5282 213.1327 3817 178C3754.988 182.2767 3666.2615 182.733 3600 178ZM3696 306L3595 272C3594.0237 460.4266 3520 605 3374 684L3424 766C3599 646 3664 493 3696 306Z"/></svg>