<?xml version="1.0" standalone="no"?><!DOCTYPE svg PUBLIC "-//W3C//DTD SVG 1.1//EN" "http://www.w3.org/Graphics/SVG/1.1/DTD/svg11.dtd"><svg style="fill-rule:nonzero;clip-rule:evenodd;stroke-linejoin:round;stroke-miterlimit:1.41421;" xmlns="http://www.w3.org/2000/svg" name="wide-thin" title="None" xml:space="preserve" viewBox="0.000 0.000 4000.000 1086.000" width="100%" xmlns:xlink="http://www.w3.org/1999/xlink" id="wide-thin" enable-background="0.000 0.000 4000.000 1086.000"><path d="M30 903C81 899 73 899 122 903C114 764 112 609 112 446C112 303 116 169 124 44C74 48 80 48 32 44C40 168 42 302 42 444C44 608 40 763 30 903ZM98 409L110 435C143 269 238 255 292 255C356 255 397 306 397 440C397 560 386 627 386 780C386 904 440 944 520 944C634 944 683 871 710 781L682 778C658 858 613 908 548 908C498 908 464 888 464 741C464 644 479 532 479 430C479 273 427 217 308 217C220 217 130 255 98 409ZM1244 775C1238 904 1291 947 1396 947C1486 947 1527 894 1570 784L1544 773C1511 873 1467 912 1406 912C1356 912 1328 894 1328 766C1328 674 1328 551 1330 444C1330 297 1332 154 1340 24C1311 26 1269 27 1238 24C1248 158 1248 295 1250 445C1252 548 1249 671 1244 775ZM1538 754C1533 870 1584 908 1676 908C1769 908 1810 838 1842 757L1822 743C1789 833 1740 877 1692 877C1639 877 1619 848 1619 726C1619 655 1621 581 1623 499C1625 408 1629 318 1633 239C1602 242 1565 241 1536 239C1540 320 1542 405 1542 495C1544 582 1541 665 1538 754ZM986 357C982 373 966 390 948 402C974 415 1015 420 1042 421C1192 428 1276 348 1281 252L1249 252C1238 326 1186 393 1080 383ZM1027 571C1027 783 1000 885 872 885C765 885 719 791 719 574C719 356 775 282 878 282C960 282 1027 356 1027 571ZM884 250C745 250 636 341 636 585C636 803 705 915 862 915C1039 915 1110 799 1110 566C1110 339 1022 250 884 250ZM2142 805C2142 907 2189 937 2270 937C2352 937 2398 899 2433 802L2409 785C2388 860 2350 910 2290 910C2242 910 2218 873 2218 766C2218 677 2218 548 2220 444C2220 297 2224 154 2232 24C2198 26 2168 26 2134 24C2143 127 2142 231 2146 342L2138 342C2138 362 2140 384 2140 405C2142 521 2140 654 2136 774L2142 774ZM2140 631C2136 781 2087 859 1989 859C1905 859 1861 788 1861 574C1861 331 1912 271 2004 271C2075 271 2134 297 2141 461L2160 415C2148 264 2080 240 1998 240C1874 240 1776 321 1776 585C1776 791 1833 895 1976 895C2099 895 2135 817 2144 776ZM2726 751C2720 873 2761 914 2866 914C2952 914 3000 870 3034 750L3008 742C2981 848 2935 887 2879 887C2821 887 2803 847 2803 746C2803 663 2805 568 2805 472C2805 406 2805 363 2813 233C2781 236 2756 235 2724 233L2728 366L2718 367C2718 385 2720 403 2720 423C2722 530 2720 632 2716 744ZM2720 615C2716 774 2667 858 2576 858C2494 858 2456 777 2456 584C2456 384 2508 303 2589 303C2664 303 2714 326 2721 478L2754 473C2739 290 2673 267 2586 267C2468 267 2370 353 2370 595C2370 814 2434 895 2564 895C2676 895 2713 819 2728 750ZM3421 224C3387 227 3352 227 3321 224C3329 350 3323 508 3323 657C3323 681 3323 705 3325 731L3331 730C3331 768 3335 814 3335 876C3335 998 3314 1052 3184 1052C3062 1052 3048 990 3068 935C3039 937 3009 937 2980 933C2938 1044 3044 1082 3178 1082C3396 1082 3415 977 3415 883C3415 775 3405 717 3405 659C3403 509 3409 351 3421 224ZM3340 694L3323 656C3313 791 3269 852 3174 852C3088 852 3074 786 3074 723C3074 628 3090 450 3088 270C3060 274 3029 274 2998 270C3010 465 2990 607 2990 740C2990 854 3066 887 3166 887C3259 887 3327 853 3340 694ZM1594 159C1639 159 1662 126 1662 86C1662 45 1639 12 1594 12C1548 12 1522 45 1522 86C1522 126 1548 159 1594 159ZM3680 188C3679 231 3676 284 3676 332C3676 335 3694 336 3695 340L3701 387C3729.9732 590.8112 3900 663 3900 776C3900 829.4444 3874 887 3760 887C3671 887 3638 848.9722 3638 776C3638 741 3644 721 3662 691C3635 693 3603 693 3576 691C3556 723 3550 755 3550 781C3550 876 3628 916 3748 916C3882 916 3982 876 3982 760C3982 618 3769 545 3769 306C3769 270 3767 224 3777 188C3750 190 3709 190 3680 188ZM3712 277L3677 285C3660.9954 450.0473 3551.1487 625.5119 3337 729L3355 756C3602.2995 615.9999 3678.9729 471.1594 3712 277Z"/></svg>