<?xml version="1.0" standalone="no"?><!DOCTYPE svg PUBLIC "-//W3C//DTD SVG 1.1//EN" "http://www.w3.org/Graphics/SVG/1.1/DTD/svg11.dtd"><svg style="fill-rule:nonzero;clip-rule:evenodd;stroke-linejoin:round;stroke-miterlimit:1.41421;" xmlns="http://www.w3.org/2000/svg" name="narrow-bold" title="None" xml:space="preserve" viewBox="0.000 0.000 500.000 1000.000" width="100%" xmlns:xlink="http://www.w3.org/1999/xlink" id="narrow-bold" enable-background="0.000 0.000 500.000 1000.000"><path d="M430 868C386 953 322 1000 238 1000C107 1000 0 823 0 520C0 167 101 0 250 0C397 0 500 197 500 480C500 644 477 777 430 868L424.8512 862.7314C468.9774 779.8738 490.0616 657.7701 490.0616 504.9059C490.0616 220.948 382.8707 17.2426 240.78 17.2426C103.0356 17.2426 10.7766 169.3948 10.7766 491.9808C10.7766 782.4081 111.1909 981.2008 248.5371 981.2008C325.7119 981.2008 384.4434 939.1102 424.8512 862.7314C424.8512 862.7314 430 868 430 868ZM422.4298 860.2538C383.7113 932.5782 327.4576 972.3601 253.4924 972.3601C113.1617 972.3601 15.8445 763.319 15.8445 478.8043C15.8445 170.521 103.9929 25.3512 236.4442 25.3512C376.2261 25.3512 485.3879 232.21 485.3879 516.6184C485.3879 664.2458 465.2047 781.2252 422.4298 860.2538L417.281 854.9852C457.1821 784.099 475.4494 678.0159 475.4494 541.5243C475.4494 256.158 362.0968 42.5938 227.2242 42.5938C106.0284 42.5938 26.6211 172.9158 26.6211 450.7851C26.6211 722.7272 117.3526 953.561 264.0295 953.561C331.1695 953.561 382.1547 918.6884 417.281 854.9852C417.281 854.9852 422.4298 860.2538 422.4298 860.2538ZM414.8597 852.5076C381.4227 912.1564 332.9151 944.7203 268.9848 944.7203C119.3235 944.7203 31.689 703.6381 31.689 437.6086C31.689 174.042 106.9857 50.7024 222.8883 50.7024C355.4522 50.7024 470.7757 267.42 470.7757 553.2368C470.7757 684.4915 453.4093 785.4504 414.8597 852.5076L409.7109 847.239C445.3867 788.3242 460.8373 698.2616 460.8373 578.1427C460.8373 291.368 341.3229 67.945 213.6683 67.945C109.0213 67.945 42.4656 176.4368 42.4656 409.5894C42.4656 663.0462 123.5144 925.9211 279.5219 925.9211C336.627 925.9211 379.8661 898.2666 409.7109 847.239C409.7109 847.239 414.8597 852.5076 414.8597 852.5076ZM407.2891 844.761C379.1339 891.7334 338.373 917.0789 284.4781 917.0789C125.4856 917.0789 47.5344 643.9538 47.5344 396.4106C47.5344 177.5632 109.9787 76.055 209.3317 76.055C334.6771 76.055 456.1627 302.632 456.1627 589.8573C456.1627 704.7384 441.6133 789.6758 407.2891 844.761L402.1403 839.4924C433.5907 792.5496 446.2243 718.5085 446.2243 614.7632C446.2243 326.58 320.5478 93.2976 200.1117 93.2976C112.0143 93.2976 58.311 179.958 58.311 368.3914C58.311 603.3619 129.6765 898.2797 295.0152 898.2797C342.0849 898.2797 377.5773 877.8436 402.1403 839.4924C402.1403 839.4924 407.2891 844.761 407.2891 844.761ZM399.719 837.0148C376.8453 871.3116 343.8305 889.439 299.9705 889.439C131.6473 889.439 63.3789 584.2728 63.3789 355.2149C63.3789 181.0842 112.9716 101.4062 195.7758 101.4062C313.9032 101.4062 441.5506 337.842 441.5506 626.4757C441.5506 724.9841 429.8179 793.901 399.719 837.0148L394.5702 831.7462C421.7953 796.7748 431.6121 738.7542 431.6121 651.3816C431.6121 361.79 299.7739 118.6488 186.5559 118.6488C115.0071 118.6488 74.1555 183.479 74.1555 327.1957C74.1555 543.6809 135.8382 870.6399 310.5076 870.6399C347.5424 870.6399 375.2887 857.4218 394.5702 831.7462C394.5702 831.7462 399.719 837.0148 399.719 837.0148ZM392.1488 829.2686C374.5566 850.8898 349.2881 861.7992 315.4629 861.7992C137.8091 861.7992 79.2234 524.5919 79.2234 314.0192C79.2234 184.6052 115.9644 126.7574 182.22 126.7574C293.1293 126.7574 426.9384 373.052 426.9384 663.0941C426.9384 745.2299 418.0226 798.1262 392.1488 829.2686L387 824C410 801 417 759 417 688C417 397 279 144 173 144C118 144 90 187 90 286C90 484 142 843 326 843C353 843 373 837 387 824C387 824 392.1488 829.2686 392.1488 829.2686Z"/></svg>