<?xml version="1.0" standalone="no"?><!DOCTYPE svg PUBLIC "-//W3C//DTD SVG 1.1//EN" "http://www.w3.org/Graphics/SVG/1.1/DTD/svg11.dtd"><svg style="fill-rule:nonzero;clip-rule:evenodd;stroke-linejoin:round;stroke-miterlimit:1.41421;" xmlns="http://www.w3.org/2000/svg" name="narrow-thin" title="None" xml:space="preserve" viewBox="0.000 0.000 500.000 1000.000" width="100%" xmlns:xlink="http://www.w3.org/1999/xlink" id="narrow-thin" enable-background="0.000 0.000 500.000 1000.000"><path d="M351 958C317 985 279 1000 238 1000C107 1000 0 823 0 520C0 213 116 0 250 0C397 0 500 197 500 480C500 712 442 883 351 958L347.6578 955.4933C435.4139 880.7391 491.0547 710.7221 491.0547 480.2457C491.0547 198.8185 392.5765 2.3592 249.8526 2.3592C119.8337 2.3592 8.6504 214.6219 8.6504 519.6068C8.6504 821.1815 111.0794 997.5916 238.2949 997.5916C278.0661 997.5916 314.8374 982.5916 347.6578 955.4933C347.6578 955.4933 351 958 351 958ZM338.0684 948.3013C308.6325 975.6817 275.3868 990.6817 239.141 990.6817C122.7841 990.6817 33.4699 815.9637 33.4699 518.4786C33.4699 219.2756 130.8333 9.1282 249.4295 9.1282C379.8847 9.1282 465.3891 204.0363 465.3891 480.9509C465.3891 707.0556 416.5172 874.2522 338.0684 948.3013L334.7262 945.7947C409.9311 871.9913 456.4438 705.7777 456.4438 481.1966C456.4438 205.8548 375.4612 11.4874 249.282 11.4874C134.667 11.4874 42.1203 220.8976 42.1203 518.0854C42.1203 814.1452 126.8636 988.2733 239.4359 988.2733C274.4529 988.2733 306.4699 973.2733 334.7262 945.7947C334.7262 945.7947 338.0684 948.3013 338.0684 948.3013ZM325.1369 938.6027C300.265 966.3633 271.7735 981.3633 240.282 981.3633C138.5682 981.3633 66.9398 808.9274 66.9398 516.9573C66.9398 225.5512 145.6665 18.2563 248.859 18.2563C362.7694 18.2563 430.7781 211.0726 430.7781 481.9017C430.7781 702.1112 391.0344 865.5044 325.1369 938.6027L321.7947 936.096C384.4483 863.2435 421.8328 700.8333 421.8328 482.1474C421.8328 212.8911 358.3459 20.6155 248.7115 20.6155C149.5002 20.6155 75.5902 227.1732 75.5902 516.5641C75.5902 807.1089 142.6477 978.955 240.5769 978.955C270.8397 978.955 298.1024 963.955 321.7947 936.096C321.7947 936.096 325.1369 938.6027 325.1369 938.6027ZM312.2053 928.904C291.8976 957.045 268.1603 972.045 241.4231 972.045C154.3523 972.045 100.4098 801.8911 100.4098 515.4359C100.4098 231.8268 160.4998 27.3845 248.2885 27.3845C345.6541 27.3845 396.1672 218.1089 396.1672 482.8526C396.1672 697.1667 365.5517 856.7565 312.2053 928.904L308.8631 926.3973C358.9656 854.4956 387.2219 695.8888 387.2219 483.0983C387.2219 219.9274 341.2306 29.7437 248.141 29.7437C164.3335 29.7437 109.0602 233.4488 109.0602 515.0427C109.0602 800.0726 158.4318 969.6367 241.718 969.6367C267.2265 969.6367 289.735 954.6367 308.8631 926.3973C308.8631 926.3973 312.2053 928.904 312.2053 928.904ZM299.2738 919.2053C283.5301 947.7267 264.5471 962.7267 242.5641 962.7267C170.1364 962.7267 133.8797 794.8548 133.8797 513.9146C133.8797 238.1024 175.333 36.5126 247.718 36.5126C328.5388 36.5126 361.5562 225.1452 361.5562 483.8034C361.5562 692.2223 340.0689 848.0087 299.2738 919.2053L295.9316 916.6987C333.4828 845.7478 352.6109 690.9444 352.6109 484.0491C352.6109 226.9637 324.1153 38.8718 247.5705 38.8718C179.1667 38.8718 142.5301 239.7244 142.5301 513.5214C142.5301 793.0363 174.2159 960.3183 242.859 960.3183C263.6132 960.3183 281.3675 945.3183 295.9316 916.6987C295.9316 916.6987 299.2738 919.2053 299.2738 919.2053ZM286.3422 909.5067C275.1626 938.4083 260.9339 953.4083 243.7051 953.4083C185.9205 953.4083 167.3496 787.8185 167.3496 512.3932C167.3496 244.378 190.1663 45.6408 247.1474 45.6408C311.4235 45.6408 326.9453 232.1815 326.9453 484.7543C326.9453 687.2779 314.5861 839.2609 286.3422 909.5067L283 907C308 837 318 686 318 485C318 234 307 48 247 48C194 48 176 246 176 512C176 786 190 951 244 951C260 951 273 936 283 907C283 907 286.3422 909.5067 286.3422 909.5067Z"/></svg>