<?xml version="1.0" standalone="no"?><!DOCTYPE svg PUBLIC "-//W3C//DTD SVG 1.1//EN" "http://www.w3.org/Graphics/SVG/1.1/DTD/svg11.dtd"><svg style="fill-rule:nonzero;clip-rule:evenodd;stroke-linejoin:round;stroke-miterlimit:1.41421;" xmlns="http://www.w3.org/2000/svg" name="wide-bold" title="None" xml:space="preserve" viewBox="0.000 0.000 1000.000 1000.000" width="100%" xmlns:xlink="http://www.w3.org/1999/xlink" id="wide-bold" enable-background="0.000 0.000 1000.000 1000.000"><path d="M837 886C750 959 627 1000 468 1000C230 1000 0 813 0 520C0 233 199 0 490 0C781 0 1000 197 1000 480C1000 655 946 796 837 886L832.1904 880.4104C930.1412 799.8997 978.2917 673.4586 978.2917 516.9172C978.2917 230.4074 745.1228 18.3286 462.7021 18.3286C201.7298 18.3286 23.6582 225.9805 23.6582 484.3827C23.6582 780.5025 257.4279 981.9314 502.1874 981.9314C644.4187 981.9314 754.4197 945.351 832.1904 880.4104C832.1904 880.4104 837 886 837 886ZM830.562 878.518C755.916 940.73 650.316 975.814 513.762 975.814C266.714 975.814 31.668 769.5 31.668 472.324C31.668 223.604 202.654 24.534 453.46 24.534C732.976 24.534 970.942 241.718 970.942 529.416C970.942 679.708 924.772 801.22 830.562 878.518L825.7524 872.9284C908.9132 805.1197 949.2337 698.1666 949.2337 566.3332C949.2337 275.1254 697.0988 42.8626 426.1621 42.8626C205.3838 42.8626 55.3262 216.5845 55.3262 436.7067C55.3262 737.0025 294.1419 957.7454 547.9494 957.7454C667.7347 957.7454 760.3357 927.0811 825.7524 872.9284C825.7524 872.9284 830.562 878.518 830.562 878.518ZM824.124 871.036C761.832 922.46 673.632 951.628 559.524 951.628C303.428 951.628 63.336 726 63.336 424.648C63.336 214.208 206.308 49.068 416.92 49.068C684.952 49.068 941.884 286.436 941.884 578.832C941.884 704.416 903.544 806.44 824.124 871.036L819.314 865.446C887.684 810.34 920.174 722.876 920.174 615.752C920.174 319.846 649.072 67.398 389.62 67.398C209.038 67.398 86.996 207.188 86.996 389.028C86.996 693.5 330.858 933.558 593.714 933.558C691.052 933.558 766.252 908.81 819.314 865.446C819.314 865.446 824.124 871.036 824.124 871.036ZM817.686 863.554C767.748 904.19 696.948 927.442 605.286 927.442C340.142 927.442 95.004 682.5 95.004 376.972C95.004 204.812 209.962 73.602 380.38 73.602C636.928 73.602 912.826 331.154 912.826 628.248C912.826 729.124 882.316 811.66 817.686 863.554L812.876 857.964C866.456 815.56 891.116 747.584 891.116 665.168C891.116 364.564 601.048 91.932 353.08 91.932C212.692 91.932 118.664 197.792 118.664 341.352C118.664 650 367.572 909.372 639.476 909.372C714.368 909.372 772.168 890.54 812.876 857.964C812.876 857.964 817.686 863.554 817.686 863.554ZM811.2476 856.0716C773.6643 885.9189 720.2653 903.2546 651.0506 903.2546C376.8581 903.2546 126.6738 638.9975 126.6738 329.2933C126.6738 195.4155 213.6162 98.1374 343.8379 98.1374C588.9012 98.1374 883.7663 375.8746 883.7663 677.6668C883.7663 753.8334 861.0868 816.8803 811.2476 856.0716L806.438 850.482C845.228 820.78 862.058 772.292 862.058 714.584C862.058 409.282 553.024 116.466 316.54 116.466C216.346 116.466 150.332 188.396 150.332 293.676C150.332 606.5 404.286 885.186 685.238 885.186C737.684 885.186 778.084 872.27 806.438 850.482C806.438 850.482 811.2476 856.0716 811.2476 856.0716ZM804.8096 848.5896C779.5803 867.649 743.5813 879.0686 696.8126 879.0686C413.5721 879.0686 158.3418 595.4975 158.3418 281.6173C158.3418 186.0195 217.2702 122.6714 307.2979 122.6714C540.8772 122.6714 854.7083 420.5926 854.7083 727.0828C854.7083 778.5414 839.8588 822.1003 804.8096 848.5896L800 843C824 826 833 797 833 764C833 454 505 141 280 141C220 141 182 179 182 246C182 563 441 861 731 861C761 861 784 854 800 843C800 843 804.8096 848.5896 804.8096 848.5896Z"/></svg>