<?xml version="1.0" standalone="no"?><!DOCTYPE svg PUBLIC "-//W3C//DTD SVG 1.1//EN" "http://www.w3.org/Graphics/SVG/1.1/DTD/svg11.dtd"><svg style="fill-rule:nonzero;clip-rule:evenodd;stroke-linejoin:round;stroke-miterlimit:1.41421;" xmlns="http://www.w3.org/2000/svg" name="wide-thin" title="None" xml:space="preserve" viewBox="0.000 0.000 1000.000 1000.000" width="100%" xmlns:xlink="http://www.w3.org/1999/xlink" id="wide-thin" enable-background="0.000 0.000 1000.000 1000.000"><path d="M693 964C632 988 563 1000 488 1000C220 1000 0 823 0 520C0 213 233 0 500 0C795 0 1000 197 1000 480C1000 719 881 893 693 964L690.3578 960.2196C872.87 888.8944 988.1302 716.4797 988.1302 480.2033C988.1302 198.5041 788.0489 1.9512 499.878 1.9512C238.8942 1.9512 11.6259 214.3415 11.6259 519.6748C11.6259 821.4959 226.382 998.0082 488.2439 998.0082C562.4309 998.0082 630.4553 985.3578 690.3578 960.2196C690.3578 960.2196 693 964 693 964ZM680.5285 946.1561C624.7089 975.5285 560.3138 990.5984 489.1512 990.5984C250.1236 990.5984 54.8748 815.9008 54.8748 518.465C54.8748 219.3317 260.8211 9.2098 499.4244 9.2098C762.1902 9.2098 943.974 204.0992 943.974 480.9593C943.974 707.1041 842.626 873.6211 680.5285 946.1561L677.8862 942.3756C834.496 869.5155 932.1042 704.5838 932.1042 481.1626C932.1042 205.6032 755.2391 11.161 499.3024 11.161C266.7154 11.161 66.5007 220.6732 66.5007 518.1398C66.5007 814.3968 256.5056 988.6065 489.3951 988.6065C559.7447 988.6065 623.1642 972.8862 677.8862 942.3756C677.8862 942.3756 680.5285 946.1561 680.5285 946.1561ZM668.0569 928.3122C617.4179 963.0569 557.6276 981.1967 490.3024 981.1967C280.2472 981.1967 109.7496 808.8016 109.7496 516.9301C109.7496 225.6634 288.6423 18.4195 498.8488 18.4195C729.3805 18.4195 887.9479 211.1984 887.9479 481.9187C887.9479 695.2081 804.252 854.2423 668.0569 928.3122L665.4147 924.5317C796.122 850.1366 876.0781 692.6878 876.0781 482.122C876.0781 212.7024 722.4293 20.3707 498.7268 20.3707C294.5365 20.3707 121.3755 227.0049 121.3755 516.6049C121.3755 807.2976 286.6292 979.2049 490.5463 979.2049C557.0585 979.2049 615.8732 960.4146 665.4147 924.5317C665.4147 924.5317 668.0569 928.3122 668.0569 928.3122ZM655.5854 910.4683C610.1268 950.5854 554.9415 971.7951 491.4537 971.7951C310.3708 971.7951 164.6245 801.7024 164.6245 515.3951C164.6245 231.9951 316.4634 27.6293 498.2732 27.6293C696.5707 27.6293 831.9219 218.2976 831.9219 482.878C831.9219 683.3122 765.878 834.8634 655.5854 910.4683L652.9431 906.6878C757.748 830.7577 820.0521 680.7919 820.0521 483.0813C820.0521 219.8016 689.6195 29.5805 498.1512 29.5805C322.3577 29.5805 176.2504 233.3366 176.2504 515.0699C176.2504 800.1984 316.7528 969.8033 491.6976 969.8033C554.3724 969.8033 608.5821 947.9431 652.9431 906.6878C652.9431 906.6878 655.5854 910.4683 655.5854 910.4683ZM643.1138 892.6244C602.8358 938.1138 552.2553 962.3935 492.6049 962.3935C340.4944 962.3935 219.4993 794.6032 219.4993 513.8602C219.4993 238.3268 344.2846 36.839 497.6976 36.839C663.7609 36.839 775.8958 225.3968 775.8958 483.8374C775.8958 671.4162 727.504 815.4845 643.1138 892.6244L640.4715 888.8439C719.374 811.3789 764.026 668.8959 764.026 484.0407C764.026 226.9008 656.8098 38.7902 497.5756 38.7902C350.1789 38.7902 231.1252 239.6683 231.1252 513.535C231.1252 793.0992 346.8764 960.4016 492.8488 960.4016C551.6862 960.4016 601.2911 935.4715 640.4715 888.8439C640.4715 888.8439 643.1138 892.6244 643.1138 892.6244ZM630.6422 874.7804C595.5447 925.6422 549.5691 952.9918 493.7561 952.9918C370.618 952.9918 274.3741 787.5041 274.3741 512.3252C274.3741 244.6585 372.1058 46.0488 497.122 46.0488C630.9511 46.0488 719.8698 232.4959 719.8698 484.7967C719.8698 659.5203 689.13 796.1056 630.6422 874.7804L628 871C681 792 708 657 708 485C708 234 624 48 497 48C378 48 286 246 286 512C286 786 377 951 494 951C549 951 594 923 628 871C628 871 630.6422 874.7804 630.6422 874.7804Z"/></svg>