<?xml version="1.0" encoding="UTF-8" standalone="no"?>
<svg width="718px" height="20px" viewBox="0 0 718 20" version="1.1" xmlns="http://www.w3.org/2000/svg" xmlns:xlink="http://www.w3.org/1999/xlink" xmlns:sketch="http://www.bohemiancoding.com/sketch/ns">
    <!-- Generator: Sketch 3.3.3 (12072) - http://www.bohemiancoding.com/sketch -->
    <title>Imported Layers</title>
    <desc>Created with Sketch.</desc>
    <defs></defs>
    <g id="Welcome" stroke="none" stroke-width="1" fill="none" fill-rule="evenodd" sketch:type="MSPage">
        <g id="Desktop-HD" sketch:type="MSArtboardGroup" transform="translate(-361.000000, -2139.000000)" stroke="#2F6651" stroke-width="5">
            <path d="M361,2142 C388.599957,2142 388.599957,2155.6 416.199913,2155.6 C443.801288,2155.6 443.801288,2142 471.401245,2142 C499.002619,2142 499.002619,2155.6 526.603994,2155.6 C554.206787,2155.6 554.206787,2142 581.80958,2142 C609.412373,2142 609.412373,2155.6 637.016584,2155.6 C664.617959,2155.6 664.617959,2142 692.220751,2142 C719.81929,2142 719.81929,2155.6 747.419247,2155.6 C775.022039,2155.6 775.022039,2142 802.624832,2142 C830.227625,2142 830.227625,2155.6 857.830418,2155.6 C885.434629,2155.6 885.434629,2142 913.03884,2142 C940.641633,2142 940.641633,2155.6 968.245844,2155.6 C995.852892,2155.6 995.852892,2142 1023.45994,2142 C1051.06699,2142 1051.06699,2155.6 1078.67403,2155.6" id="Imported-Layers" sketch:type="MSShapeGroup"></path>
        </g>
    </g>
</svg>