<?xml version="1.0" standalone="no"?><!DOCTYPE svg PUBLIC "-//W3C//DTD SVG 1.1//EN" "http://www.w3.org/Graphics/SVG/1.1/DTD/svg11.dtd"><svg style="fill-rule:nonzero;clip-rule:evenodd;stroke-linejoin:round;stroke-miterlimit:1.41421;" xmlns="http://www.w3.org/2000/svg" name="narrow-bold" title="None" xml:space="preserve" viewBox="0.000 0.000 1000.000 1177.000" width="100%" xmlns:xlink="http://www.w3.org/1999/xlink" id="narrow-bold" enable-background="0.000 0.000 1000.000 1177.000"><path d="M387 1177C204 1177 0 1115 0 792C0 559.8609 126.0532 431 311 431C318 431 323 435 330 437L355 443C387.983 452.162 409.3396 457 451 457C544 457 640 378 640 221C640 125 623 50 582 50C501 50 463 256 463 545C463 771 508 1122 652 1122C783 1122 862 854 862 469C862 332 826 133 751 4C812 -4 872.1482 -1.4256 934 4C990 121 1000 303 1000 456C1000 858 863 1177 634 1177C397 1177 269 904 269 548C269 228 402 0 591 0C725 0 793 91 793 234C793 420.5017 662 521 507 521C436.3605 521 399.2452 507.0937 345 494L331 489C328 486 321 484 319 484C252 484 189 535 189 780C189 1021 316 1122 422 1122C446 1122 465 1118 494 1109L496 1101C576.9964 1076.3489 645.0214 824.2459 622 560C677.6817 551.5952 738.1517 554.3318 792 560C785.9996 802.0144 687.0571 1066.3972 556 1133L546 1148C501 1166 449 1177 387 1177Z"/></svg>