<?xml version="1.0" standalone="no"?><!DOCTYPE svg PUBLIC "-//W3C//DTD SVG 1.1//EN" "http://www.w3.org/Graphics/SVG/1.1/DTD/svg11.dtd"><svg style="fill-rule:nonzero;clip-rule:evenodd;stroke-linejoin:round;stroke-miterlimit:1.41421;" xmlns="http://www.w3.org/2000/svg" name="narrow-thin" title="None" xml:space="preserve" viewBox="0.000 0.000 1000.000 1177.000" width="100%" xmlns:xlink="http://www.w3.org/1999/xlink" id="narrow-thin" enable-background="0.000 0.000 1000.000 1177.000"><path d="M387 1177C204 1177 0 1115 0 792C0 547 106 411 261 411C283 411 302 413 320 417L345 423C417 443 465 483 557 483C672 483 720 394 720 242C720 124 680 48 581 48C455 48 356 255 356 545C356 868 429 1122 652 1122C834 1122 944 854 944 469C944 332 923 166 826 4C849 1 871 2 894 4C971 152 1000 303 1000 456C1000 916 863 1177 634 1177C397 1177 299 904 299 548C299 228 423 0 591 0C712 0 773 91 773 234C773 427 704 531 557 531C460 531 409 492 335 474L311 469C295 466 277 464 257 464C142 464 59 582 59 780C59 1079 231 1122 396 1122C433 1122 465 1118 494 1109L516 1101C689 1032 733 806 733 560C753 557 773 558 792 560C786 802 747 1038 576 1133L546 1148C501 1166 449 1177 387 1177Z"/></svg>