<?xml version="1.0" standalone="no"?><!DOCTYPE svg PUBLIC "-//W3C//DTD SVG 1.1//EN" "http://www.w3.org/Graphics/SVG/1.1/DTD/svg11.dtd"><svg style="fill-rule:nonzero;clip-rule:evenodd;stroke-linejoin:round;stroke-miterlimit:1.41421;" xmlns="http://www.w3.org/2000/svg" name="wide-bold" title="None" xml:space="preserve" viewBox="0.000 0.000 4000.000 1177.000" width="100%" xmlns:xlink="http://www.w3.org/1999/xlink" id="wide-bold" enable-background="0.000 0.000 4000.000 1177.000"><path d="M1147 1177C605 1177 0 1093 0 652C0 349 254 181 621 181C1078 181 1323 315 1629 459L1654 467C1742 495 1837 513 1947 513C2177.2105 513 2271 441 2271 322C2271 240 2236.0374 188 2184 188C2077 188 2021 324 2021 515C2021 778 2240 984 2863 984C3262 984 3477 773 3477 469C3477 334.2367 3455.3171 171.2009 3359 11C3540 0 3723 0 3904 11C3978.5613 154.2362 4000 305.7149 4000 456C4000 896 3588 1177 2901 1177C1853.2105 1177 1479 891 1479 518C1479 215 1768 0 2198 0C2536 0 2727 122 2727 314C2727 559 2478.0377 691 1947 691C1841 691 1748 676 1662 651L1633 652C1421.1432 585.4164 1265 536 1047 536C844 536 751 600 751 708C751 918 1141.3055 950 1442 950C1702 950 1811.3621 937.4355 2085 901L2173 927C2708.8444 837.331 2832 564 2864 263C3021 253 3178 253 3335 263C3293 622 3097.8327 927.1527 2312 1078L2246 1100C1961 1150 1601 1177 1147 1177Z"/></svg>