<?xml version="1.0" standalone="no"?><!DOCTYPE svg PUBLIC "-//W3C//DTD SVG 1.1//EN" "http://www.w3.org/Graphics/SVG/1.1/DTD/svg11.dtd"><svg style="fill-rule:nonzero;clip-rule:evenodd;stroke-linejoin:round;stroke-miterlimit:1.41421;" xmlns="http://www.w3.org/2000/svg" name="wide-thin" title="None" xml:space="preserve" viewBox="0.000 0.000 4000.000 1177.000" width="100%" xmlns:xlink="http://www.w3.org/1999/xlink" id="wide-thin" enable-background="0.000 0.000 4000.000 1177.000"><path d="M1147 1177C605 1177 0 1093 0 652C0 349 254 181 621 181C1078 181 1305 427 1629 539L1654 547C1742 575 1837 593 1947 593C2350 593 2515 480 2515 292C2515 149 2411 58 2161 58C1890 58 1676 248 1676 515C1676 851 1984 1114 2919 1114C3551 1114 3929 849 3929 469C3929 332.177 3908.3868 165.9801 3811 4C3839 1 3866 1 3894 4C3971.4635 151.9751 4000 303.3509 4000 456C4000 896 3588 1177 2901 1177C1949 1177 1609 891 1609 518C1609 215 1849 0 2171 0C2445 0 2583 110 2583 284C2583 522 2380 651 1947 651C1841 651 1748 636 1662 611L1633 602C1293 494 1062 244 617 244C295 244 70 391 70 640C70 1052 684 1112 1156 1112C1550 1112 1872 1101 2133 1063L2173 1047C2990 910 3201 619 3239 263C3264 260 3290 260 3315 263C3273 622 3083 930 2312 1078L2246 1100C1961 1150 1601 1177 1147 1177Z"/></svg>