<?xml version="1.0" standalone="no"?><!DOCTYPE svg PUBLIC "-//W3C//DTD SVG 1.1//EN" "http://www.w3.org/Graphics/SVG/1.1/DTD/svg11.dtd"><svg style="fill-rule:nonzero;clip-rule:evenodd;stroke-linejoin:round;stroke-miterlimit:1.41421;" xmlns="http://www.w3.org/2000/svg" name="narrow-bold" title="None" xml:space="preserve" viewBox="0.000 0.000 2000.000 380.000" width="100%" xmlns:xlink="http://www.w3.org/1999/xlink" id="narrow-bold" enable-background="0.000 0.000 2000.000 380.000"><path d="M512 107L512 267C636 331 721 380 963 380C1278 380 1577 347 1823 300C1942 277 2000 255 2000 182C2000 126 1941 100 1827 80C1583 37 1281 0 963 0C731 0 631 56 512 107ZM272 365L362 365C388 285 432 265 486 265L486 109C431 109 390 82 359 9L275 9C158 9 140 103 0 103L18.1395 181L218 181C221 168 233 159 246 159C262 159 275 172 275 188C275 204 262 217 246 217C232 217 221 207 218 194L21.1628 194L40 275C158 275 172 365 272 365Z"/></svg>