<?xml version="1.0" standalone="no"?><!DOCTYPE svg PUBLIC "-//W3C//DTD SVG 1.1//EN" "http://www.w3.org/Graphics/SVG/1.1/DTD/svg11.dtd"><svg style="fill-rule:nonzero;clip-rule:evenodd;stroke-linejoin:round;stroke-miterlimit:1.41421;" xmlns="http://www.w3.org/2000/svg" name="wide-bold" title="None" xml:space="preserve" viewBox="0.000 0.000 4000.000 380.000" width="100%" xmlns:xlink="http://www.w3.org/1999/xlink" id="wide-bold" enable-background="0.000 0.000 4000.000 380.000"><path d="M732 107L732 267C922 319 1089 380 1503 380C2354 380 3236 343 3823 300C3944 291 4000 255 4000 182C4000 126 3942 88 3827 80C3230 41 2355 0 1503 0C1106 0 914 59 732 107ZM322 365L502 365C529 283 612 265 696 265L696 109C611 109 532 86 499 9L325 9C187 9 166 103 0 103L22.6744 181L268 181C271 168 283 159 296 159C312 159 325 172 325 188C325 204 312 217 296 217C282 217 271 207 268 194L26.4535 194L50 275C189 275 205 365 322 365Z"/></svg>